<?xml version="1.0" standalone="no"?>
<!DOCTYPE svg PUBLIC "-//W3C//DTD SVG 20010904//EN"
 "http://www.w3.org/TR/2001/REC-SVG-20010904/DTD/svg10.dtd">
<svg version="1.0" xmlns="http://www.w3.org/2000/svg"
 width="1280.000000pt" height="1002.000000pt" viewBox="0 0 1280.000000 1002.000000"
 preserveAspectRatio="xMidYMid meet">
<g transform="translate(0.000000,1002.000000) scale(0.100000,-0.100000)"
fill="#000000" stroke="none">
<path d="M6305 10009 c-38 -4 -148 -15 -244 -24 -1325 -124 -2367 -716 -3121
-1775 -186 -262 -368 -575 -517 -893 -101 -214 -204 -458 -222 -522 -7 -25
-11 -154 -11 -335 0 -162 -4 -300 -8 -307 -4 -7 -53 -28 -107 -47 -849 -295
-1551 -985 -1868 -1836 -87 -234 -143 -464 -172 -705 -8 -71 -20 -173 -26
-225 -23 -194 14 -575 86 -875 231 -967 896 -1753 1815 -2143 184 -78 482
-167 626 -187 159 -21 321 71 397 224 l32 66 5 3105 5 3105 53 120 c94 209
238 495 323 640 513 875 1164 1411 2025 1665 448 132 929 185 1320 145 800
-82 1429 -328 1942 -759 116 -98 339 -328 433 -446 270 -341 497 -740 707
-1245 l45 -110 6 -3110 6 -3110 32 -65 c58 -119 161 -197 287 -221 69 -12 120
-7 277 32 1029 250 1880 1039 2204 2041 117 362 187 867 156 1128 -6 52 -18
154 -26 225 -98 833 -542 1593 -1232 2111 -237 178 -562 349 -830 438 -45 15
-86 33 -92 39 -6 8 -11 138 -13 347 l-3 335 -49 120 c-453 1118 -987 1839
-1731 2341 -575 387 -1302 629 -2085 694 -74 6 -165 15 -202 20 -75 11 -122
11 -223 -1z"/>
<path d="M6237 6526 c-54 -20 -103 -61 -132 -110 -22 -38 -40 -142 -166 -947
-77 -497 -145 -915 -151 -929 -15 -38 -22 -15 -57 180 -136 766 -151 845 -174
889 -66 130 -242 167 -359 78 -65 -50 -85 -101 -119 -298 -16 -96 -76 -452
-133 -791 -57 -339 -107 -621 -110 -627 -5 -7 -15 -7 -34 1 -15 6 -54 16 -87
22 l-60 11 -7 85 c-8 82 -32 455 -98 1495 -20 304 -37 510 -46 543 -29 105
-145 182 -255 169 -59 -7 -103 -29 -149 -73 l-35 -33 -55 35 c-225 142 -512
51 -613 -196 l-22 -55 -3 -2790 c-1 -1777 1 -2809 8 -2842 14 -77 55 -154 114
-211 61 -60 127 -95 223 -118 70 -17 72 -17 153 6 95 27 182 80 228 138 44 55
82 140 89 201 7 57 10 61 74 84 59 22 98 64 173 183 34 54 66 99 73 101 7 3
15 -8 19 -24 18 -76 72 -143 139 -174 53 -25 147 -24 201 0 77 35 104 75 199
298 48 114 92 212 97 218 19 21 28 -25 28 -153 0 -143 8 -176 57 -240 36 -48
113 -82 187 -82 70 0 127 24 173 72 17 18 97 162 178 320 81 158 150 290 155
293 5 3 11 1 15 -4 3 -6 16 -115 30 -243 13 -128 36 -345 50 -482 28 -276 41
-323 103 -377 50 -44 92 -59 162 -59 94 0 162 37 210 115 10 17 69 212 130
435 131 479 129 472 142 468 6 -2 34 -62 62 -133 65 -162 76 -182 118 -222 72
-69 183 -84 277 -37 65 33 105 85 132 176 12 40 26 67 33 65 6 -2 19 -50 29
-108 36 -216 45 -243 90 -295 53 -60 104 -84 182 -84 106 0 199 65 229 159 8
25 31 183 51 351 20 168 40 314 44 325 12 28 191 255 202 255 7 0 68 -181 166
-495 32 -102 78 -163 151 -199 l32 -17 0 -223 c0 -123 5 -247 10 -276 32 -170
152 -290 334 -336 67 -17 73 -17 140 0 189 48 307 170 335 347 14 82 15 5485
1 5577 -19 137 -107 258 -227 315 -249 116 -533 -28 -582 -297 -7 -39 -11
-251 -11 -598 0 -321 -4 -538 -9 -538 -11 0 -14 12 -42 195 -24 158 -37 196
-82 243 -51 53 -102 75 -177 76 -78 0 -128 -22 -183 -83 -43 -48 -38 -31 -173
-559 -59 -231 -110 -426 -115 -433 -4 -8 -11 -10 -14 -7 -4 4 -33 119 -65 256
-32 137 -65 263 -73 278 -20 37 -73 87 -117 110 -50 26 -153 24 -206 -3 -85
-44 -104 -79 -189 -332 -48 -144 -81 -231 -88 -228 -7 2 -22 52 -34 110 -12
59 -31 123 -44 143 -48 79 -159 125 -250 105 -24 -6 -48 -6 -52 -2 -9 9 -27
280 -78 1131 -33 563 -34 567 -95 639 -55 66 -176 98 -257 67z"/>
</g>
</svg>
